<svg id="oam-logo-h-neg" xmlns="http://www.w3.org/2000/svg" width="832" height="160" viewBox="0 0 832 160"><path d="M250.4 81.1c0 10.2-2.5 18-7.5 23.5s-12.2 8.2-21.6 8.2-16.6-2.7-21.6-8.2c-5-5.5-7.5-13.3-7.5-23.6s2.5-18.1 7.6-23.5c5-5.4 12.3-8.1 21.7-8.1s16.6 2.7 21.6 8.2c4.8 5.4 7.3 13.3 7.3 23.5zm-44.8 0c0 6.9 1.3 12.1 3.9 15.6 2.6 3.5 6.5 5.2 11.7 5.2 10.4 0 15.6-6.9 15.6-20.8s-5.2-20.8-15.5-20.8c-5.2 0-9.1 1.7-11.7 5.2-2.7 3.5-4 8.7-4 15.6zm80.6 31.7c-5.5 0-9.8-2-13-6h-.7c.4 3.9.7 6.2.7 6.8v19.1h-12.8V64.9h10.4l1.8 6.1h.6c3-4.7 7.4-7 13.3-7 5.5 0 9.9 2.1 13 6.4 3.1 4.3 4.7 10.3 4.7 17.9 0 5-.7 9.4-2.2 13.1-1.5 3.7-3.6 6.5-6.3 8.5s-5.9 2.9-9.5 2.9zm-3.8-38.5c-3.2 0-5.5 1-6.9 2.9-1.5 2-2.2 5.2-2.3 9.7v1.4c0 5.1.7 8.7 2.2 10.9 1.5 2.2 3.9 3.3 7.1 3.3 5.7 0 8.6-4.7 8.6-14.2 0-4.6-.7-8.1-2.1-10.4-1.4-2.5-3.6-3.6-6.6-3.6zm52.4 38.5c-7.5 0-13.4-2.1-17.7-6.3-4.2-4.2-6.4-10.1-6.4-17.8 0-7.9 2-14 5.9-18.3 3.9-4.3 9.4-6.5 16.3-6.5 6.6 0 11.8 1.9 15.5 5.7 3.7 3.8 5.5 9 5.5 15.7v6.2h-30.2c.1 3.7 1.2 6.5 3.2 8.6 2 2.1 4.8 3.1 8.5 3.1 2.8 0 5.5-.3 8-.9 2.5-.6 5.1-1.5 7.9-2.8v9.9c-2.2 1.1-4.6 2-7.2 2.5-2.6.7-5.7.9-9.3.9zM333 73.1c-2.7 0-4.8.9-6.4 2.6-1.5 1.7-2.4 4.2-2.6 7.4h17.9c-.1-3.2-.9-5.6-2.5-7.4-1.6-1.7-3.7-2.6-6.4-2.6zm73.1 38.9h-12.8V84.5c0-3.4-.6-6-1.8-7.7-1.2-1.7-3.1-2.6-5.7-2.6-3.6 0-6.2 1.2-7.8 3.6-1.6 2.4-2.4 6.4-2.4 12V112h-12.8V64.9h9.8l1.7 6h.7c1.4-2.3 3.4-4 5.9-5.2 2.5-1.2 5.3-1.7 8.5-1.7 5.5 0 9.6 1.5 12.4 4.4 2.8 3 4.2 7.2 4.2 12.8V112zm51.3 0L453 97.3h-22.4l-4.4 14.7h-14l21.6-61.9h15.9l21.7 61.9h-14zm-7.6-25.6c-4.1-13.3-6.4-20.8-6.9-22.6-.5-1.7-.9-3.1-1.1-4.1-.9 3.6-3.6 12.5-7.9 26.7h15.9zm47.5 26.4c-7.5 0-13.4-2.1-17.7-6.3-4.2-4.2-6.4-10.1-6.4-17.8 0-7.9 2-14 5.9-18.3 3.9-4.3 9.4-6.5 16.3-6.5 6.6 0 11.8 1.9 15.5 5.7 3.7 3.8 5.5 9 5.5 15.7v6.2h-30.2c.1 3.7 1.2 6.5 3.2 8.6 2 2.1 4.8 3.1 8.5 3.1 2.8 0 5.5-.3 8-.9 2.5-.6 5.1-1.5 7.9-2.8v9.9c-2.2 1.1-4.6 2-7.2 2.5-2.5.7-5.6.9-9.3.9zm-1.8-39.7c-2.7 0-4.8.9-6.4 2.6-1.5 1.7-2.4 4.2-2.6 7.4h17.9c-.1-3.2-.9-5.6-2.5-7.4-1.5-1.7-3.7-2.6-6.4-2.6zm56-9.1c1.7 0 3.2.1 4.3.4l-1 12.1c-1-.3-2.3-.4-3.8-.4-4.1 0-7.3 1.1-9.5 3.2-2.3 2.1-3.4 5.1-3.4 8.9v24h-12.8V64.9h9.7l1.9 7.9h.6c1.5-2.6 3.4-4.8 5.9-6.4 2.5-1.6 5.2-2.4 8.1-2.4zm10.2-11.3c0-4.2 2.3-6.3 7-6.3 4.6 0 7 2.1 7 6.3 0 2-.6 3.5-1.7 4.7-1.2 1.1-2.9 1.7-5.2 1.7-4.8-.1-7.1-2.2-7.1-6.4zM575 112h-12.8V64.9H575V112zm40.9 0l-2.5-6.4h-.3c-2.2 2.7-4.4 4.6-6.6 5.7-2.3 1.1-5.2 1.6-8.9 1.6-4.5 0-8-1.3-10.6-3.9-2.6-2.6-3.9-6.3-3.9-11 0-5 1.7-8.7 5.2-11.1 3.5-2.4 8.7-3.7 15.7-3.9l8.1-.3v-2.1c0-4.8-2.4-7.2-7.3-7.2-3.7 0-8.2 1.1-13.2 3.4l-4.2-8.7c5.4-2.8 11.4-4.3 17.9-4.3 6.3 0 11.1 1.4 14.5 4.1 3.4 2.8 5 6.9 5 12.6V112h-8.9zm-3.8-21.8l-4.9.2c-3.7.1-6.5.8-8.3 2-1.8 1.2-2.7 3.1-2.7 5.6 0 3.6 2.1 5.4 6.2 5.4 3 0 5.3-.9 7.1-2.6 1.8-1.7 2.7-4 2.7-6.8v-3.8zm36.4 21.8h-12.8V46.4h12.8V112zm38.2 0L672 63.6h-.4c.5 9.8.8 16.4.8 19.7V112h-11.6V50.4h17.7L693 97.5h.3l15.4-47.1h17.7V112h-12.1V82.8c0-1.4 0-3 .1-4.8 0-1.8.2-6.6.6-14.3h-.4l-16 48.3h-11.9zm81.7 0l-2.5-6.4h-.3c-2.2 2.7-4.4 4.6-6.6 5.7-2.3 1.1-5.2 1.6-8.9 1.6-4.5 0-8-1.3-10.6-3.9-2.6-2.6-3.9-6.3-3.9-11 0-5 1.7-8.7 5.2-11.1 3.5-2.4 8.7-3.7 15.7-3.9l8.1-.3v-2.1c0-4.8-2.4-7.2-7.3-7.2-3.7 0-8.2 1.1-13.2 3.4l-4.2-8.7c5.4-2.8 11.4-4.3 17.9-4.3 6.3 0 11.1 1.4 14.5 4.1 3.4 2.8 5 6.9 5 12.6V112h-8.9zm-3.8-21.8l-4.9.2c-3.7.1-6.5.8-8.3 2-1.8 1.2-2.7 3.1-2.7 5.6 0 3.6 2.1 5.4 6.2 5.4 3 0 5.3-.9 7.1-2.6 1.8-1.7 2.7-4 2.7-6.8v-3.8zm49.4 22.6c-5.5 0-9.8-2-13-6h-.7c.4 3.9.7 6.2.7 6.8v19.1h-12.8V64.9h10.4l1.8 6.1h.6c3-4.7 7.4-7 13.3-7 5.5 0 9.9 2.1 13 6.4 3.1 4.3 4.7 10.3 4.7 17.9 0 5-.7 9.4-2.2 13.1-1.5 3.7-3.6 6.5-6.3 8.5-2.7 2-5.9 2.9-9.5 2.9zm-3.8-38.5c-3.2 0-5.5 1-6.9 2.9-1.5 2-2.2 5.2-2.3 9.7v1.4c0 5.1.7 8.7 2.2 10.9 1.5 2.2 3.9 3.3 7.1 3.3 5.7 0 8.6-4.7 8.6-14.2 0-4.6-.7-8.1-2.1-10.4-1.4-2.5-3.6-3.6-6.6-3.6zM0 112L80 0l80 112-16 48-32-8-32-24-32 24-32 8z" fill="#FFF"/><path fill="#E4E8E9" d="M40 128v26l8-2 5.1-24zm16.4-16L80 0 40 56v56z"/><path fill="#68C39F" d="M160 112l-40-56v56z"/><path fill="#E4E8E9" d="M103.6 112h.4V33.6L80 0l23.6 112z"/><path fill="#449BB5" d="M0 112l16 48 8-2V78.4z"/><path fill="#E4E8E9" d="M112 152l32 8 10.7-32h-47.8z"/><path fill="#B8C1C4" d="M53.1 128L48 152l32-24v-16zM80 96V0L56.4 112z"/><path fill="#D2D8DA" d="M103.6 112L80 0v96zm3.3 16L80 112v16l32 24-5.1-24z"/><path fill="#DBE0E1" d="M56.4 112l-3.3 16L80 112V96z"/><path fill="#FFF" d="M53.1 128l3.3-16H40V56L24 78.4V158l16-4v-26zm0 0l2.9-14zM160 112h-40V56l-16-22.4V112h-.4l3.3 16h47.8l5.3-16zm-53.1 16l-2.9-14 2.9 14z"/><path fill="#EDEFF0" d="M80 96v16l26.9 16-3.3-16z"/></svg>