<svg id="oam-logo-v-pos" xmlns="http://www.w3.org/2000/svg" width="576" height="464" viewBox="0 0 576 464"><path d="M52.5 417.5c0 9.2-2.3 16.2-6.8 21.2-4.5 4.9-11 7.4-19.5 7.4s-14.9-2.5-19.5-7.4c-4.5-4.9-6.8-12-6.8-21.2s2.3-16.3 6.8-21.2c4.5-4.9 11.1-7.3 19.5-7.3s15 2.5 19.5 7.4c4.6 4.9 6.8 11.9 6.8 21.1zm-40.2 0c0 6.2 1.2 10.9 3.5 14 2.3 3.1 5.8 4.7 10.5 4.7 9.3 0 14-6.2 14-18.7s-4.6-18.7-13.9-18.7c-4.7 0-8.2 1.6-10.5 4.7-2.5 3.2-3.6 7.8-3.6 14zm72.5 28.6c-5 0-8.8-1.8-11.7-5.4h-.6c.4 3.5.6 5.6.6 6.1V464H61.6v-61.1H71l1.6 5.5h.5c2.7-4.2 6.7-6.3 12-6.3 5 0 8.9 1.9 11.7 5.8 2.8 3.9 4.2 9.2 4.2 16.1 0 4.5-.7 8.5-2 11.8-1.3 3.3-3.2 5.9-5.6 7.6-2.5 1.8-5.3 2.7-8.6 2.7zm-3.4-34.7c-2.8 0-4.9.9-6.2 2.6-1.3 1.8-2 4.7-2 8.7v1.3c0 4.6.7 7.8 2 9.8 1.3 2 3.5 3 6.4 3 5.2 0 7.7-4.3 7.7-12.8 0-4.2-.6-7.3-1.9-9.4-1.3-2.2-3.3-3.2-6-3.2zm47.1 34.7c-6.8 0-12.1-1.9-15.9-5.7-3.8-3.8-5.7-9.1-5.7-16 0-7.1 1.8-12.6 5.3-16.5 3.5-3.9 8.4-5.8 14.7-5.8 6 0 10.6 1.7 13.9 5.1 3.3 3.4 5 8.1 5 14.2v5.6h-27.2c.1 3.3 1.1 5.9 2.9 7.7 1.8 1.8 4.4 2.8 7.6 2.8 2.5 0 4.9-.3 7.2-.8s4.6-1.4 7.1-2.5v9c-2 1-4.2 1.8-6.5 2.3-2.3.3-5.1.6-8.4.6zm-1.6-35.7c-2.4 0-4.4.8-5.7 2.3-1.4 1.6-2.2 3.8-2.4 6.6H135c-.1-2.9-.8-5.1-2.2-6.6-1.6-1.6-3.5-2.3-5.9-2.3zm65.8 34.9h-11.5v-24.8c0-3.1-.5-5.4-1.6-6.9s-2.8-2.3-5.2-2.3c-3.2 0-5.5 1.1-7 3.2s-2.2 5.7-2.2 10.8v20h-11.5v-42.4h8.8l1.5 5.4h.6c1.3-2 3.1-3.6 5.3-4.6 2.3-1 4.8-1.6 7.7-1.6 4.9 0 8.6 1.3 11.2 4 2.5 2.7 3.8 6.5 3.8 11.6v27.6zm46.1 0l-4-13.2h-20.1l-4 13.2h-12.6l19.5-55.7h14.3l19.6 55.7h-12.7zm-6.8-23c-3.7-12-5.8-18.7-6.2-20.3-.5-1.6-.8-2.8-1-3.7-.8 3.2-3.2 11.2-7.1 24H232zm42.8 23.8c-6.8 0-12.1-1.9-15.9-5.7-3.8-3.8-5.7-9.1-5.7-16 0-7.1 1.8-12.6 5.3-16.5 3.5-3.9 8.4-5.8 14.7-5.8 6 0 10.6 1.7 13.9 5.1s5 8.1 5 14.2v5.6h-27.2c.1 3.3 1.1 5.9 2.9 7.7 1.8 1.8 4.4 2.8 7.6 2.8 2.5 0 4.9-.3 7.2-.8s4.6-1.4 7.1-2.5v9c-2 1-4.2 1.8-6.5 2.3-2.3.3-5.1.6-8.4.6zm-1.7-35.7c-2.4 0-4.4.8-5.7 2.3-1.4 1.6-2.2 3.8-2.4 6.6h16.2c0-2.9-.8-5.1-2.2-6.6-1.5-1.6-3.4-2.3-5.9-2.3zm50.5-8.3c1.6 0 2.9.1 3.9.3l-.9 10.9c-.9-.3-2.1-.4-3.4-.4-3.7 0-6.5.9-8.6 2.8-2.1 1.9-3.1 4.6-3.1 8v21.6H300v-42.4h8.7l1.7 7.1h.6c1.3-2.4 3.1-4.3 5.3-5.7 2.2-1.5 4.6-2.2 7.3-2.2zm9.1-10.1c0-3.8 2.1-5.7 6.3-5.7 4.2 0 6.3 1.9 6.3 5.7 0 1.8-.5 3.2-1.6 4.2-1 1-2.6 1.5-4.7 1.5-4.2-.1-6.3-2-6.3-5.7zm12 53.3h-11.5v-42.4h11.5v42.4zm36.8 0l-2.2-5.8h-.3c-1.9 2.5-3.9 4.2-6 5.1-2.1.9-4.7 1.4-8 1.4-4.1 0-7.2-1.2-9.6-3.5-2.3-2.3-3.5-5.6-3.5-9.9 0-4.5 1.6-7.8 4.7-10 3.1-2.1 7.9-3.3 14.2-3.5l7.3-.2V417c0-4.3-2.2-6.4-6.6-6.4-3.4 0-7.3 1-11.9 3.1l-3.8-7.8c4.9-2.6 10.2-3.8 16.2-3.8 5.7 0 10 1.2 13 3.7s4.5 6.2 4.5 11.3v28.3h-8zm-3.4-19.6l-4.5.2c-3.3.1-5.8.7-7.5 1.8-1.6 1.1-2.5 2.8-2.5 5.1 0 3.3 1.9 4.9 5.6 4.9 2.7 0 4.8-.8 6.4-2.3 1.6-1.5 2.4-3.6 2.4-6.1v-3.6zm32.8 19.6h-11.5v-59h11.5v59zm34.4 0L432 401.8h-.3c.5 8.9.7 14.8.7 17.7v25.8h-10.5v-55.5h15.9l13.1 42.4h.2l13.9-42.4h15.9v55.5H470V419c0-1.2 0-2.7.1-4.3 0-1.6.2-5.9.5-12.9h-.3L456 445.3h-10.7zm73.4 0l-2.2-5.8h-.3c-1.9 2.5-3.9 4.2-6 5.1-2.1.9-4.7 1.4-8 1.4-4.1 0-7.2-1.2-9.6-3.5-2.3-2.3-3.5-5.6-3.5-9.9 0-4.5 1.6-7.8 4.7-10 3.1-2.1 7.9-3.3 14.2-3.5l7.3-.2V417c0-4.3-2.2-6.4-6.6-6.4-3.4 0-7.3 1-11.9 3.1l-3.8-7.8c4.9-2.6 10.2-3.8 16.2-3.8 5.7 0 10 1.2 13 3.7s4.5 6.2 4.5 11.3v28.3h-8zm-3.4-19.6l-4.5.2c-3.3.1-5.8.7-7.5 1.8-1.6 1.1-2.5 2.8-2.5 5.1 0 3.3 1.9 4.9 5.6 4.9 2.7 0 4.8-.8 6.4-2.3 1.6-1.5 2.4-3.6 2.4-6.1v-3.6zm44.5 20.4c-5 0-8.8-1.8-11.7-5.4h-.6c.4 3.5.6 5.6.6 6.1V464h-11.5v-61.1h9.4l1.6 5.5h.5c2.7-4.2 6.7-6.3 12-6.3 5 0 8.9 1.9 11.7 5.8 2.8 3.9 4.2 9.2 4.2 16.1 0 4.5-.7 8.5-2 11.8s-3.2 5.9-5.6 7.6c-2.5 1.8-5.3 2.7-8.6 2.7zm-3.4-34.7c-2.8 0-4.9.9-6.2 2.6-1.3 1.8-2 4.7-2 8.7v1.3c0 4.6.7 7.8 2 9.8 1.3 2 3.5 3 6.4 3 5.2 0 7.7-4.3 7.7-12.8 0-4.2-.6-7.3-1.9-9.4-1.3-2.2-3.3-3.2-6-3.2z" fill="#203C46"/><path fill="#FFF" d="M128 224L288 0l160 224-32 96-64-16-64-48-64 48-64 16z"/><path fill="#E4E8E9" d="M208 256v52l16-4 10.1-48zm32.8-32L288 0l-80 112v112z"/><path fill="#68C39F" d="M448 224l-80-112v112z"/><path fill="#E4E8E9" d="M335.2 224h.8V67.2L288 0l47.2 224z"/><path fill="#449BB5" d="M128 224l32 96 16-4V156.8z"/><path fill="#E4E8E9" d="M352 304l64 16 21.3-64h-95.4z"/><path fill="#B8C1C4" d="M234.1 256L224 304l64-48v-32zm53.9-64V0l-47.2 224z"/><path fill="#D2D8DA" d="M335.2 224L288 0v192zm6.7 32L288 224v32l64 48-10.1-48z"/><path fill="#DBE0E1" d="M240.8 224l-6.7 32 53.9-32v-32z"/><path fill="#FFF" d="M234.1 256l6.7-32H208V112l-32 44.8V316l32-8v-52zm0 0l5.9-28zM448 224h-80V112l-32-44.8V224h-.8l6.7 32h95.4l10.7-32zm-106.1 32l-5.9-28 5.9 28z"/><path fill="#EDEFF0" d="M288 192v32l53.9 32-6.7-32z"/></svg>