<svg id="oam-logo-symbol" xmlns="http://www.w3.org/2000/svg" width="640" height="640" viewBox="0 0 640 640"><path fill="#FFF" d="M0 448L320 0l320 448-64 192-128-32-128-96-128 96-128 32z"/><path fill="#E4E8E9" d="M160 512v104l32-8 20.2-96zm65.7-64L320 0 160 224v224z"/><path fill="#68C39F" d="M640 448L480 224v224z"/><path fill="#E4E8E9" d="M414.3 448h1.7V134.4L320 0l94.3 448z"/><path fill="#449BB5" d="M0 448l64 192 32-8V313.6z"/><path fill="#E4E8E9" d="M448 608l128 32 42.7-128H427.8z"/><path fill="#B8C1C4" d="M212.2 512L192 608l128-96v-64zM320 384V0l-94.3 448z"/><path fill="#D2D8DA" d="M414.3 448L320 0v384zm13.5 64L320 448v64l128 96-20.2-96z"/><path fill="#DBE0E1" d="M225.7 448l-13.5 64L320 448v-64z"/><path fill="#FFF" d="M212.2 512l13.5-64H160V224l-64 89.6V632l64-16V512zm0 0l11.8-56zM640 448H480V224l-64-89.6V448h-1.7l13.5 64h190.9l21.3-64zm-212.2 64L416 456l11.8 56z"/><path fill="#EDEFF0" d="M320 384v64l107.8 64-13.5-64z"/></svg>