<svg xmlns="http://www.w3.org/2000/svg" width="32" height="32" viewBox="0 0 32 32"><path fill="#E4E8E9" d="M16 0l-6.4 30.4-6.4 1.6-3.2-9.6z"/><path fill="#B8C1C4" d="M16 0v25.6l-6.4 4.8z"/><path fill="#E4E8E9" d="M16 0l6.4 30.4 6.4 1.6 3.2-9.6z"/><path fill="#D2D8DA" d="M16 0v25.6l6.4 4.8z"/><path fill="#DBE0E1" d="M11.3 22.4l-.7 3.2 5.4-3.2v-3.2z"/><path fill="#EDEFF0" d="M20.7 22.4l-4.7-3.2v3.2l5.4 3.2z"/><path fill="#203C46" d="M20.8 22.8l-.1-.4.1.4z"/><path fill="#fff" d="M24 22.4v-11.2l-3.2-4.5v15.7h-.1l.7 3.2h9.5l1.1-3.2zM8 22.4v-11.2l-3.2 4.5v15.9l3.2-.8v-5.2h2.6l.7-3.2z"/><path fill="#68C39F" d="M24 11.2v11.2h8z"/><path fill="#449BB5" d="M0 22.4l3.2 9.6 1.6-.4v-15.9z"/></svg>