<svg xmlns="http://www.w3.org/2000/svg" width="167" height="32" viewBox="0 0 167 32"><path fill="#E4E8E9" d="M16 0l-6.4 30.4-6.4 1.6-3.2-9.6z"/><path fill="#B8C1C4" d="M16 0v25.6l-6.4 4.8z"/><path fill="#E4E8E9" d="M16 0l6.4 30.4 6.4 1.6 3.2-9.6z"/><path fill="#D2D8DA" d="M16 0v25.6l6.4 4.8z"/><path fill="#DBE0E1" d="M11.3 22.4l-.7 3.2 5.4-3.2v-3.2z"/><path fill="#EDEFF0" d="M20.7 22.4l-4.7-3.2v3.2l5.4 3.2z"/><path fill="#203C46" d="M20.8 22.8l-.1-.4.1.4z"/><path fill="#fff" d="M24 22.4v-11.2l-3.2-4.5v15.7h-.1l.7 3.2h9.5l1.1-3.2zM8 22.4v-11.2l-3.2 4.5v15.9l3.2-.8v-5.2h2.6l.7-3.2z"/><path fill="#68C39F" d="M24 11.2v11.2h8z"/><path fill="#449BB5" d="M0 22.4l3.2 9.6 1.6-.4v-15.9z"/><g fill="#fff"><path d="M50.1 16.2c0 2-.5 3.6-1.5 4.7s-2.4 1.6-4.3 1.6-3.3-.5-4.3-1.6-1.5-2.7-1.5-4.7c0-2.1.5-3.6 1.5-4.7s2.5-1.6 4.3-1.6c1.9 0 3.3.5 4.3 1.6s1.5 2.7 1.5 4.7zm-9 0c0 1.4.3 2.4.8 3.1s1.3 1 2.3 1c2.1 0 3.1-1.4 3.1-4.2s-1-4.2-3.1-4.2c-1 0-1.8.3-2.3 1-.5.9-.8 1.9-.8 3.3zM57.2 22.6c-1.1 0-2-.4-2.6-1.2h-.1c.1.8.1 1.2.1 1.4v3.8h-2.6v-13.6h2.1l.4 1.2h.1c.6-.9 1.5-1.4 2.7-1.4 1.1 0 2 .4 2.6 1.3.6.9.9 2.1.9 3.6 0 1-.1 1.9-.4 2.6-.3.7-.7 1.3-1.3 1.7-.5.4-1.1.6-1.9.6zm-.7-7.7c-.6 0-1.1.2-1.4.6-.3.4-.4 1-.5 1.9v.3c0 1 .1 1.7.4 2.2.3.4.8.7 1.4.7 1.1 0 1.7-.9 1.7-2.8 0-.9-.1-1.6-.4-2.1-.2-.6-.6-.8-1.2-.8zM67 22.6c-1.5 0-2.7-.4-3.5-1.3-.8-.8-1.3-2-1.3-3.6s.4-2.8 1.2-3.7c.8-.9 1.9-1.3 3.3-1.3 1.3 0 2.4.4 3.1 1.1.7.8 1.1 1.8 1.1 3.1v1.2h-6c0 .7.2 1.3.6 1.7.4.4 1 .6 1.7.6.6 0 1.1-.1 1.6-.2s1-.3 1.6-.6v2c-.4.2-.9.4-1.4.5-.7.4-1.3.5-2 .5zm-.4-8c-.5 0-1 .2-1.3.5s-.5.8-.5 1.5h3.6c0-.6-.2-1.1-.5-1.5-.3-.3-.8-.5-1.3-.5zM81.2 22.4h-2.6v-5.5c0-.7-.1-1.2-.4-1.5-.2-.3-.6-.5-1.1-.5-.7 0-1.2.2-1.6.7-.3.5-.5 1.3-.5 2.4v4.4h-2.6v-9.4h2l.3 1.2h.3c.3-.5.7-.8 1.2-1s1.1-.3 1.7-.3c1.1 0 1.9.3 2.5.9.6.6.8 1.4.8 2.6v6zM91.5 22.4l-.9-2.9h-4.5l-.9 2.9h-2.8l4.4-12.4h3.2l4.3 12.4h-2.8zm-1.5-5.1c-.8-2.7-1.3-4.2-1.4-4.5s-.2-.6-.2-.8c-.2.7-.7 2.5-1.6 5.3h3.2zM99.5 22.6c-1.5 0-2.7-.4-3.5-1.3-.8-.8-1.3-2-1.3-3.6s.4-2.8 1.2-3.7c.8-.9 1.9-1.3 3.3-1.3 1.3 0 2.4.4 3.1 1.1.7.8 1.1 1.8 1.1 3.1v1.2h-6c0 .7.2 1.3.6 1.7.4.4 1 .6 1.7.6.6 0 1.1-.1 1.6-.2s1-.3 1.6-.6v2c-.4.2-.9.4-1.4.5-.7.4-1.3.5-2 .5zm-.4-8c-.5 0-1 .2-1.3.5s-.5.8-.5 1.5h3.6c0-.6-.2-1.1-.5-1.5s-.8-.5-1.3-.5zM110.3 12.8c.3 0 .6 0 .9.1l-.2 2.4c-.2-.1-.5-.1-.8-.1-.8 0-1.5.2-1.9.6-.5.4-.7 1-.7 1.8v4.8h-2.6v-9.4h1.9l.4 1.6h.1c.3-.5.7-1 1.2-1.3.6-.3 1.1-.5 1.7-.5zM112.3 10.5c0-.8.5-1.3 1.4-1.3s1.4.4 1.4 1.3c0 .4-.1.7-.3.9-.2.2-.6.3-1 .3-1 .1-1.5-.3-1.5-1.2zm2.7 11.9h-2.6v-9.4h2.6v9.4zM123.2 22.4l-.5-1.3h-.1c-.4.5-.9.9-1.3 1.1-.5.2-1 .3-1.8.3-.9 0-1.6-.3-2.1-.8s-.8-1.3-.8-2.2c0-1 .3-1.7 1-2.2s1.7-.7 3.1-.8l1.6-.1v-.4c0-1-.5-1.4-1.5-1.4-.7 0-1.6.2-2.6.7l-.8-1.7c1.1-.6 2.3-.9 3.6-.9 1.3 0 2.2.3 2.9.8.7.6 1 1.4 1 2.5v6.3h-1.7v.1zm-.8-4.4h-1c-.7 0-1.3.2-1.7.4-.4.2-.5.6-.5 1.1 0 .7.4 1.1 1.2 1.1.6 0 1.1-.2 1.4-.5.4-.3.5-.8.5-1.4l.1-.7zM129.7 22.4h-2.6v-13.1h2.6v13.1zM137.3 22.4l-3-9.7h-.1c.1 2 .2 3.3.2 3.9v5.7h-2.3v-12.2h3.5l2.9 9.4h.1l3.1-9.4h3.5v12.3h-2.4v-6.8s0-1.3.1-2.9h-.1l-3.2 9.7h-2.3zM153.7 22.4l-.5-1.3h-.1c-.4.5-.9.9-1.3 1.1-.5.2-1 .3-1.8.3-.9 0-1.6-.3-2.1-.8s-.8-1.3-.8-2.2c0-1 .3-1.7 1-2.2s1.7-.7 3.1-.8l1.6-.1v-.4c0-1-.5-1.4-1.5-1.4-.7 0-1.6.2-2.6.7l-.8-1.7c1.1-.6 2.3-.9 3.6-.9s2.2.3 2.9.8c.7.6 1 1.4 1 2.5v6.3h-1.7v.1zm-.8-4.4h-1c-.7 0-1.3.2-1.7.4-.4.2-.5.6-.5 1.1 0 .7.4 1.1 1.2 1.1.6 0 1.1-.2 1.4-.5.4-.3.5-.8.5-1.4v-.7h.1zM162.8 22.6c-1.1 0-2-.4-2.6-1.2h-.1c.1.8.1 1.2.1 1.4v3.8h-2.6v-13.6h2.1l.4 1.2h.1c.6-.9 1.5-1.4 2.7-1.4 1.1 0 2 .4 2.6 1.3.6.9.9 2.1.9 3.6 0 1-.1 1.9-.4 2.6-.3.7-.7 1.3-1.3 1.7-.5.4-1.2.6-1.9.6zm-.8-7.7c-.6 0-1.1.2-1.4.6-.3.4-.4 1-.5 1.9v.3c0 1 .1 1.7.4 2.2.3.4.8.7 1.4.7 1.1 0 1.7-.9 1.7-2.8 0-.9-.1-1.6-.4-2.1-.1-.6-.6-.8-1.2-.8z"/></g></svg>